<?xml version="1.0" encoding="UTF-8"?>
<svg data-bbox="-0.01 -0.06 717.98 600.86" viewBox="0 0 718 600.83" xmlns="http://www.w3.org/2000/svg" data-type="ugc">
    <g>
        <path fill="none" stroke="#212121" stroke-miterlimit="10" stroke-width="10" d="m101.12 594.83-1.48-221.79 1.09-25.35 3.6-25.14 6.07-24.69 8.49-23.99 10.84-23.06 13.08-21.91L158 208.36l17.16-18.97 18.97-17.2 20.59-15.28 22.01-13.2 23.22-10.99 24.19-8.66 24.94-6.27 25.44-3.79 25.69-1.29 25.69 1.23 25.43 3.73 24.93 6.19 24.19 8.61 23.2 10.92 21.99 13.13 20.58 15.21 18.95 17.13 17.15 18.9 15.18 20.47 13.07 21.84 10.84 23 8.5 23.93 6.08 24.63 3.62 25.09 1.12 25.32-1.21 221.47"/>
        <path d="m359.14 10.01 34.49 1.66 34.14 5.03 33.46 8.35 32.45 11.59 31.12 14.7 29.49 17.67 27.57 20.45 25.38 23.04 22.95 25.39 20.3 27.49 17.46 29.32 14.45 30.86 11.32 32.09 8.08 33.02 4.77 33.62 1.43 34.15-1.62 214.65-86.99 16.29-98.63-15.97.61-214.72v-.25l-.01-.25-.69-14.78-.02-.49-.07-.49-2.15-14.65-.07-.49-.12-.48-3.59-14.37-.12-.48-.17-.47-4.99-13.95-.17-.47-.21-.45-6.35-13.4-.21-.45-.26-.42-7.65-12.72-.25-.42-.3-.4-8.88-11.92-.29-.4-.33-.36-10.02-11-.33-.36-.37-.33-11.06-9.97-.37-.33-.4-.29-12-8.85-.4-.29-.42-.25-12.82-7.63-.42-.25-.44-.21-13.52-6.35-.44-.21-.46-.16-14.09-5-.46-.16-.48-.12-14.52-3.6-.47-.12-.48-.07-14.81-2.16-.48-.07-.49-.02-14.96-.71-.49-.02-.49.02-14.96.75-.49.02-.48.07-14.81 2.21-.48.07-.47.12-14.52 3.64-.47.12-.46.16-14.09 5.04-.46.16-.44.21-13.53 6.39-.44.21-.42.25-12.83 7.68-.42.25-.39.29-12 8.89-.39.29-.36.33-11.06 10.01-.36.33-.33.36-10.02 11.04-.33.37-.29.4-8.87 11.96-.29.4-.25.42-7.65 12.76-.25.42-.21.45-6.35 13.44-.21.45-.17.47-4.98 13.98-.17.47-.12.48-3.58 14.39-.12.48-.07.49-2.13 14.67-.07.49-.02.49-.67 14.8v.25l-.01.25.87 214.96-96.91 16.47-89.27-15.9-1.89-215.02 1.4-34.21 4.75-33.7 8.07-33.11 11.32-32.19 14.47-30.96 17.48-29.42 20.33-27.59 22.99-25.49L136.32 90l27.61-20.54 29.53-17.75 31.16-14.78 32.48-11.66 33.49-8.42 34.16-5.1 34.49-1.73M359.13 0l-35.48 1.77-35.13 5.24-34.44 8.66-33.41 11.99-32.05 15.2-30.37 18.25-28.4 21.13-26.15 23.79-23.65 26.22-20.92 28.38-17.99 30.27-14.89 31.85-11.65 33.12-8.3 34.07-4.88 34.68-1.43 34.96 1.96 223.56 99.16 17.66 106.99-18.18-.91-223.44.67-14.8 2.13-14.67 3.58-14.39 4.98-13.98 6.35-13.44 7.65-12.76 8.87-11.96 10.02-11.04 11.06-10.01 12-8.89 12.83-7.68 13.53-6.39 14.09-5.04 14.52-3.64 14.81-2.21 14.96-.75 14.96.71 14.81 2.16 14.52 3.6 14.09 5 13.52 6.35 12.82 7.63 12 8.85 11.06 9.97 10.02 11 8.88 11.92 7.65 12.72 6.35 13.4 4.99 13.95 3.59 14.37 2.15 14.65.69 14.78-.63 223.26 108.78 17.61 96.8-18.13 1.68-223.13-1.46-34.89-4.91-34.6-8.31-33.98-11.65-33.03-14.87-31.75-17.97-30.17-20.89-28.29-23.61-26.12-26.11-23.7-28.36-21.04-30.33-18.17-32.01-15.12-33.38-11.92-34.42-8.59-35.12-5.18L359.1-.06Z" fill="#212121"/>
    </g>
</svg>
