<?xml version="1.0" encoding="UTF-8"?>
<svg data-bbox="207.37 328.98 652.52 542.08" viewBox="0 0 1067 1200" xmlns="http://www.w3.org/2000/svg" data-type="shape">
    <g>
        <path d="m534.77 449.9 21.57 1.03 21.36 3.13 20.93 5.2 20.3 7.22 19.47 9.16 18.45 11.02 17.26 12.76L690 513.79l14.38 15.84 12.73 17.16 10.95 18.3 9.08 19.26 7.12 20.05 5.1 20.63 3.03 21.02.96 21.78-.97 183.27-53.7-8.7.53-187.48v-.57c0-.19 0-.37-.02-.56l-.64-13.77c-.04-.78-.11-1.56-.23-2.33l-2-13.63c-.11-.77-.27-1.55-.46-2.31l-3.34-13.38c-.19-.76-.42-1.52-.68-2.25l-4.64-12.96c-.26-.74-.57-1.48-.91-2.21l-5.91-12.47q-.495-1.05-1.11-2.07l-7.11-11.83c-.4-.66-.83-1.32-1.31-1.96l-8.26-11.09s-.02-.03-.03-.05c-.45-.6-.94-1.19-1.46-1.76l-9.33-10.25c-.28-.31-.55-.58-.79-.81-.25-.26-.54-.54-.86-.83l-10.3-9.28c-.58-.53-1.2-1.03-1.8-1.47l-11.14-8.21c-.63-.46-1.28-.9-1.98-1.32l-11.93-7.1s-.04-.02-.05-.03c-.66-.39-1.34-.75-2.01-1.06l-12.59-5.91c-.71-.33-1.43-.63-2.15-.88l-13.11-4.65s-.05-.02-.07-.03c-.73-.25-1.46-.47-2.16-.64l-13.52-3.35c-.75-.19-1.52-.34-2.27-.45l-13.79-2.02c-.76-.11-1.53-.18-2.3-.22l-13.92-.66h-.06c-.23-.01-.5-.02-.74-.02h-.69c-.22 0-.48 0-.71.01h-.13l-13.92.7h-.06c-.77.04-1.55.12-2.26.23l-13.83 2.06c-.77.12-1.54.27-2.24.45l-13.47 3.38c-.75.19-1.51.41-2.27.69l-13.1 4.69c-.74.26-1.47.56-2.17.9l-12.55 5.93c-.68.32-1.36.68-2.02 1.07a.2.2 0 0 0-.06.04l-11.95 7.15c-.67.4-1.33.84-1.93 1.29l-11.19 8.29c-.63.47-1.24.97-1.79 1.46l-10.27 9.29c-.33.3-.62.58-.87.85-.25.24-.52.52-.81.83l-9.31 10.25c-.54.59-1.05 1.22-1.5 1.83l-8.26 11.13c-.46.62-.9 1.27-1.3 1.94l-7.11 11.86c-.4.66-.77 1.36-1.11 2.08l-5.92 12.52c-.33.69-.62 1.41-.89 2.16l-4.64 13.02c-.27.75-.5 1.51-.68 2.24l-3.32 13.37c-.19.78-.35 1.57-.46 2.33l-1.98 13.61c-.07.45-.11.85-.14 1.22q-.06.525-.09 1.17l-.63 13.74c-.02.41-.03.82-.03 1.21l.76 187.74-52.05 8.84-1.19-183.37.94-21.83 3.01-21.06 5.09-20.68 7.12-20.1 9.08-19.33 10.96-18.37 12.74-17.23 14.39-15.9 15.91-14.44 17.28-12.82 18.48-11.08 19.5-9.23 20.31-7.28 20.95-5.26 21.37-3.19 21.58-1.08m-.05-15.97-23.14 1.16-22.92 3.42-22.47 5.64-21.79 7.81-20.92 9.9-19.83 11.89-18.54 13.76-17.08 15.49-15.45 17.07-13.68 18.5-11.77 19.72-9.75 20.76-7.65 21.6-5.47 22.22-3.24 22.63-.99 23.02 1.32 202.59 83.98-14.27-.82-201.3v-.39l.63-13.77c0-.13.04-.25.06-.38.01-.13 0-.26.02-.39l1.99-13.65c.04-.25.09-.51.15-.76l3.33-13.4c.06-.25.14-.5.22-.74l4.64-13.01c.09-.24.19-.48.3-.71l5.91-12.5c.11-.23.23-.46.36-.68l7.12-11.87c.13-.22.27-.43.43-.64l8.26-11.13c.15-.21.32-.41.49-.59l9.32-10.27c.09-.1.19-.16.28-.26.09-.09.16-.2.26-.28l10.3-9.32c.19-.17.39-.33.59-.49l11.17-8.27c.21-.15.42-.29.64-.43l11.94-7.14c.22-.13.44-.25.67-.36l12.59-5.95c.23-.11.47-.21.71-.29l13.11-4.69c.24-.09.48-.16.73-.22l13.52-3.39q.375-.09.75-.15l13.78-2.05c.25-.04.5-.06.76-.08l13.92-.7h.04c.11 0 .22.02.33.02.12 0 .23-.02.35-.02h.04l13.92.66c.25.01.51.04.76.07l13.78 2.01q.375.06.75.15l13.51 3.35c.25.06.49.14.73.22l13.11 4.65c.24.09.48.18.71.29l12.59 5.91c.23.11.46.23.68.36l11.93 7.1c.22.13.43.27.64.43l11.17 8.23c.21.15.4.31.59.48l10.29 9.28c.1.09.17.2.26.29s.2.16.28.26l9.32 10.24c.17.19.34.39.49.59l8.26 11.09c.15.21.3.42.43.64l7.12 11.84c.13.22.25.45.36.68l5.91 12.47c.11.23.21.47.3.71l4.65 12.99c.09.24.16.49.22.74l3.34 13.37c.06.25.11.5.15.76l2 13.63c.04.25.06.51.07.77l.64 13.76c0 .07-.01.13-.01.19 0 .07.02.13.02.19l-.57 201.09 85.64 13.87 1.08-202.36-1.02-22.97-3.26-22.59-5.48-22.17-7.65-21.54-9.75-20.7-11.77-19.66-13.67-18.43-15.44-17.01-17.06-15.43-18.53-13.69-19.81-11.83-20.9-9.83-21.78-7.75-22.46-5.58-22.91-3.36-23.13-1.11Z"/>
        <path d="m533.76 345.02 30.67 1.48 30.36 4.48 29.76 7.43 28.85 10.3 27.67 13.07 26.21 15.7 24.5 18.18 22.56 20.48 20.39 22.56 18.04 24.43 15.51 26.05 12.84 27.41 10.05 28.51 7.18 29.33 4.24 29.86 1.29 30.69-1.41 187.44-42.46 7.95.97-182.84v-.59c0-.2 0-.39-.02-.59l-1.04-23.56c-.03-.77-.11-1.55-.22-2.35l-3.37-23.34c-.11-.78-.26-1.56-.45-2.32l-5.66-22.91c-.19-.77-.42-1.54-.68-2.27l-7.91-22.27c-.26-.73-.56-1.47-.9-2.18l-10.08-21.39c-.18-.39-.36-.73-.53-1.04-.16-.32-.35-.67-.58-1.04l-12.17-20.34c-.41-.68-.84-1.33-1.3-1.95l-14.1-19.01c-.47-.64-.98-1.26-1.51-1.84l-15.94-17.56c-.53-.58-1.09-1.15-1.68-1.68l-17.64-15.95s-.04-.03-.06-.05c-.58-.52-1.17-1-1.76-1.43l-19.17-14.17c-.34-.25-.65-.46-.94-.64-.29-.2-.61-.41-.98-.63l-20.46-12.21c-.65-.39-1.33-.75-2.02-1.08-.02 0-.03-.02-.05-.02l-21.61-10.17c-.7-.33-1.43-.63-2.14-.88l-22.52-8.01c-.7-.25-1.44-.47-2.17-.66-.02 0-.03 0-.05-.01l-23.23-5.77c-.76-.19-1.53-.34-2.26-.44l-23.69-3.47c-.42-.06-.8-.1-1.15-.13-.34-.04-.73-.07-1.15-.09l-23.88-1.14a24 24 0 0 0-2.4 0l-23.86 1.2h-.06c-.77.04-1.54.12-2.26.23l-23.7 3.54c-.77.12-1.54.27-2.25.45l-23.22 5.83c-.73.18-1.46.41-2.22.67l-22.52 8.07c-.4.14-.77.29-1.09.43-.32.13-.68.28-1.07.46l-21.65 10.24c-.69.33-1.37.69-2.02 1.08l-20.48 12.28c-.68.41-1.34.85-1.95 1.3l-19.15 14.21c-.64.47-1.26.98-1.82 1.49l-17.66 16.02c-.58.52-1.13 1.08-1.65 1.65l-15.97 17.64c-.29.32-.54.62-.76.9-.23.27-.47.57-.73.92l-14.16 19.15c-.47.64-.91 1.3-1.28 1.92l-12.16 20.38c-.23.38-.42.73-.58 1.05-.17.3-.35.65-.53 1.04l-10.08 21.46c-.33.7-.63 1.43-.9 2.18l-7.91 22.34c-.26.75-.49 1.51-.67 2.25l-5.65 22.96c-.19.77-.34 1.55-.45 2.33l-3.35 23.39c-.11.76-.18 1.54-.22 2.35l-1.02 23.57c0 .21-.01.41-.02.61v.58l1.19 183.36-44.65-7.95-1.65-187.7 1.25-30.75 4.22-29.94 7.17-29.41 10.06-28.6 12.86-27.51 15.53-26.14 18.07-24.52 20.43-22.65 22.6-20.56 24.54-18.26 26.25-15.78 27.71-13.14 28.88-10.36 29.78-7.49 30.38-4.53 30.68-1.53m.01-16.06-32.25 1.61-31.93 4.77-31.3 7.87-30.36 10.89-29.13 13.81-27.6 16.59-25.81 19.2-23.77 21.62-21.49 23.83-19.01 25.79-16.34 27.5-13.53 28.94-10.58 30.09-7.54 30.95-4.44 31.51-1.3 31.94 1.77 201.38 76.66 13.65-1.32-202.59c0-.07.02-.13.02-.19 0-.07-.01-.13-.01-.19l1.02-23.59c.01-.26.04-.52.07-.77l3.35-23.4c.04-.26.09-.51.15-.76l5.65-22.97c.06-.25.14-.5.22-.74l7.9-22.33c.09-.24.18-.48.29-.71l10.08-21.46c.06-.12.14-.21.2-.33s.1-.24.16-.35l12.17-20.39c.13-.22.27-.43.43-.64l14.14-19.11c.08-.11.18-.19.26-.29s.14-.21.23-.31l15.97-17.65q.255-.285.54-.54l17.65-16.01c.19-.17.39-.34.59-.49l19.16-14.22c.21-.15.42-.29.64-.43l20.48-12.28c.22-.13.44-.25.67-.36l21.6-10.22c.12-.06.24-.08.37-.13.12-.05.22-.12.34-.16l22.52-8.07c.24-.09.48-.16.73-.22l23.21-5.83q.375-.09.75-.15l23.67-3.53c.25-.04.51-.06.76-.08l23.91-1.2c.12 0 .25-.01.37-.01.13 0 .26 0 .39.01l23.9 1.14c.13 0 .25.04.37.06.13.01.26 0 .39.02l23.67 3.47q.375.06.75.15l23.2 5.77c.25.06.49.14.73.22l22.5 8.01c.24.09.48.18.71.29l21.59 10.16c.23.11.46.23.68.36l20.47 12.22c.11.07.2.16.31.23s.22.12.33.2l19.14 14.15c.21.15.4.32.6.49l17.64 15.95q.285.255.54.54l15.96 17.58c.17.19.34.39.49.6l14.13 19.05c.15.21.3.42.43.64l12.16 20.32c.07.11.1.24.17.35.06.11.14.21.2.33l10.08 21.4c.11.23.21.47.29.71l7.91 22.27c.09.24.16.49.22.74l5.66 22.92c.06.25.11.5.15.76l3.37 23.35c.04.26.06.51.07.77l1.04 23.55c0 .07-.01.13-.01.19 0 .07.02.13.02.19l-1.08 202.22 74.47-13.94 1.51-201.02-1.34-31.88-4.46-31.43-7.55-30.87-10.58-30-13.51-28.85-16.32-27.41-18.98-25.7-21.45-23.73-23.73-21.54-25.77-19.12-27.57-16.51-29.1-13.74-30.33-10.83-31.28-7.81-31.92-4.71-32.24-1.55Z"/>
    </g>
</svg>
