<?xml version="1.0" encoding="UTF-8"?>
<svg data-bbox="0 0 355.96 49.8" viewBox="0 0 355.96 49.8" height="49.8" width="355.96" xmlns="http://www.w3.org/2000/svg" data-type="color">
    <g>
        <path d="M0 49.8V21.87C0 9.85 9.84 0 21.87 0s21.87 9.84 21.87 21.87V49.8h-7.11V21.88c0-8.12-6.64-14.76-14.76-14.76S7.11 13.76 7.11 21.88V49.8z" fill="#ffffff" data-color="1"/>
        <path d="M62.64 27.93c0 8.12 6.64 14.76 14.76 14.76s14.76-6.64 14.76-14.76V0h7.11v27.93c0 12.03-9.84 21.87-21.87 21.87s-21.87-9.84-21.87-21.87V0h7.11z" fill="#ffffff" data-color="1"/>
        <path d="M137.42 49.8V16.54c0-5.17-4.26-9.43-9.43-9.43s-9.43 4.26-9.43 9.43V49.8h-7.11V16.54c0-9.1 7.44-16.54 16.54-16.54 5.25 0 9.95 2.48 12.99 6.33C144.02 2.48 148.72 0 153.97 0c9.1 0 16.54 7.44 16.54 16.54V49.8h-7.11V16.54c0-5.17-4.26-9.43-9.43-9.43s-9.43 4.26-9.43 9.43V49.8h-7.11Z" fill="#ffffff" data-color="1"/>
        <path d="M190.59 0v49.8h-7.11V0z" fill="#ffffff" data-color="1"/>
        <path d="M203.28 49.8V21.87C203.28 9.85 213.12 0 225.15 0s21.87 9.84 21.87 21.87V49.8h-7.11V21.88c0-8.12-6.64-14.76-14.76-14.76s-14.76 6.64-14.76 14.76V49.8z" fill="#ffffff" data-color="1"/>
        <path d="m256.4 49.8 16.04-40.97C274.57 3.4 279.55 0 285.38 0s10.81 3.4 12.94 8.83l16.04 40.97h-7.63L291.7 11.42c-1.06-2.71-3.41-4.31-6.32-4.31s-5.26 1.6-6.32 4.31L264.03 49.8h-7.64Z" fill="#ffffff" data-color="1"/>
        <path d="M328.27 36.68c1.48 2.97 4.26 5.11 7.52 5.78.72.15 1.46.22 2.2.22 6 0 10.85-4.86 10.85-10.85 0-2.6-.67-4.97-2.23-7.07-1.97-2.65-4.98-4.36-7.76-6.03-2.85-1.71-5.66-3.47-7.8-6.06-3-3.62-4.02-8.07-4.13-12.67h7.12c.11 4.21 1.08 7.38 4.54 10.05 2.22 1.71 4.67 3.07 7.04 4.55 2.64 1.65 4.83 3.39 6.7 5.91 2.48 3.33 3.64 7.18 3.64 11.32 0 3.49-1 6.89-2.91 9.81-3.33 5.1-8.97 8.16-15.06 8.16-6.68 0-12.82-3.71-15.92-9.62l-.04-.07 6.2-3.51z" fill="#ffffff" data-color="1"/>
    </g>
</svg>
